<svg width="20" height="22" viewBox="0 0 20 22" fill="none" xmlns="http://www.w3.org/2000/svg">
<path d="M7.50681 3.27236C7.50681 3.14836 7.41381 3.05536 7.22781 2.99336C7.06248 2.93136 6.83514 2.90036 6.54581 2.90036C6.44248 2.90036 6.31848 2.9107 6.17381 2.93136C6.04981 2.93136 5.92581 2.9417 5.80181 2.96236C5.71914 2.98303 5.63648 3.0037 5.55381 3.02436C5.47114 3.02436 5.38848 3.0347 5.30581 3.05537C5.14048 3.0967 4.97514 3.1587 4.80981 3.24136C4.64448 3.30337 4.47914 3.39637 4.31381 3.52036C3.96248 3.7477 3.61114 4.0577 3.25981 4.45036C2.90848 4.82236 2.60881 5.25636 2.36081 5.75236C2.27814 5.9177 2.17481 6.05203 2.05081 6.15536C1.92681 6.23803 1.80281 6.30003 1.67881 6.34136C1.61681 6.34136 1.56514 6.3517 1.52381 6.37236C1.48248 6.37236 1.44114 6.37236 1.39981 6.37236C1.19314 6.37236 1.01748 6.3207 0.872809 6.21736C0.728142 6.09336 0.655809 5.92803 0.655809 5.72136C0.655809 5.7007 0.655809 5.68003 0.655809 5.65936C0.655809 5.6387 0.655809 5.61803 0.655809 5.59736C0.655809 5.59736 0.666142 5.58703 0.686809 5.56636C0.686809 5.5457 0.686809 5.52503 0.686809 5.50436L1.86481 1.07136C1.86481 0.885365 1.94748 0.730364 2.11281 0.606363C2.27814 0.482364 2.46414 0.420364 2.67081 0.420364C2.83614 0.420364 2.98081 0.451364 3.10481 0.513365C3.22881 0.575364 3.31148 0.68903 3.35281 0.854364C3.37348 0.895698 3.38381 0.937031 3.38381 0.978364C3.40448 0.999031 3.41481 1.03003 3.41481 1.07136C3.53881 1.34003 3.66281 1.49503 3.78681 1.53636C3.91081 1.5777 4.08648 1.59836 4.31381 1.59836L16.5278 1.56736C16.6105 1.58803 16.6931 1.59836 16.7758 1.59836C16.8585 1.59836 16.9515 1.58803 17.0548 1.56736C17.2408 1.5467 17.4165 1.4847 17.5818 1.38136C17.7678 1.27803 17.9021 1.10236 17.9848 0.854364C18.0468 0.68903 18.1501 0.565031 18.2948 0.482365C18.4395 0.399698 18.5841 0.358365 18.7288 0.358365C18.9148 0.358365 19.0801 0.420365 19.2248 0.544364C19.3695 0.647698 19.4418 0.833698 19.4418 1.10236L18.9768 5.72136C18.9768 5.78336 18.9665 5.83503 18.9458 5.87636C18.9458 5.9177 18.9355 5.95903 18.9148 6.00036C18.8321 6.1037 18.7185 6.20703 18.5738 6.31036C18.4498 6.4137 18.3051 6.46536 18.1398 6.46536C18.0985 6.46536 18.0571 6.46536 18.0158 6.46536C17.9745 6.4447 17.9331 6.43436 17.8918 6.43436C17.7678 6.37236 17.6438 6.26903 17.5198 6.12436C17.4165 5.9797 17.3338 5.77303 17.2718 5.50436C17.0238 4.65703 16.7138 4.06803 16.3418 3.73736C15.9698 3.4067 15.5461 3.17936 15.0708 3.05537C14.8228 2.9727 14.5955 2.92103 14.3888 2.90036C14.2028 2.85903 14.0375 2.83836 13.8928 2.83836C13.5415 2.83836 13.2831 2.9107 13.1178 3.05537C12.9731 3.17936 12.8905 3.3137 12.8698 3.45836C12.8698 3.47903 12.8698 3.4997 12.8698 3.52036C12.8698 3.52036 12.8698 3.5307 12.8698 3.55136V17.6874C12.8698 18.3694 13.0041 18.824 13.2728 19.0514C13.5621 19.2787 13.8721 19.4337 14.2028 19.5164C14.2648 19.5164 14.3165 19.5267 14.3578 19.5474C14.4198 19.5474 14.4818 19.5577 14.5438 19.5784C14.8125 19.6197 15.0398 19.692 15.2258 19.7954C15.4325 19.878 15.5358 20.0744 15.5358 20.3844C15.5358 20.6944 15.4118 20.901 15.1638 21.0044C14.9365 21.1077 14.6161 21.1594 14.2028 21.1594C13.9341 21.1594 13.6448 21.1387 13.3348 21.0974C13.0248 21.0767 12.7045 21.0457 12.3738 21.0044C12.2911 20.9837 12.1981 20.963 12.0948 20.9424C12.0121 20.9424 11.9295 20.9424 11.8468 20.9424C11.5988 20.9217 11.3508 20.901 11.1028 20.8804C10.8755 20.8597 10.6481 20.8494 10.4208 20.8494C10.2761 20.8494 10.1315 20.8494 9.98681 20.8494C9.86281 20.8494 9.72848 20.8494 9.58381 20.8494C9.21181 20.8494 8.85014 20.8597 8.49881 20.8804C8.16814 20.901 7.84781 20.932 7.53781 20.9734C7.22781 20.994 6.93848 21.0147 6.66981 21.0354C6.40114 21.0767 6.15314 21.0974 5.92581 21.0974C5.59514 21.0974 5.32648 21.0457 5.11981 20.9424C4.91314 20.8597 4.80981 20.6737 4.80981 20.3844C4.80981 20.0744 4.91314 19.8677 5.11981 19.7644C5.32648 19.6404 5.57448 19.5474 5.86381 19.4854C5.90514 19.4854 5.94648 19.475 5.98781 19.4544C6.04981 19.4337 6.11181 19.4234 6.17381 19.4234C6.50448 19.32 6.80414 19.165 7.07281 18.9584C7.36214 18.731 7.50681 18.3177 7.50681 17.7184V3.27236Z" fill="#FEFBFB"/>
</svg>
