<svg width="14" height="16" viewBox="0 0 14 16" fill="none" xmlns="http://www.w3.org/2000/svg">
<path id="Vector" d="M12.4777 4.11111L11.8143 13.5549C11.7868 13.9473 11.6141 14.3146 11.3308 14.5828C11.0475 14.8509 10.6749 15 10.2878 15H3.95513C3.56806 15 3.19536 14.8509 2.9121 14.5828C2.62884 14.3146 2.45608 13.9473 2.42859 13.5549L1.76518 4.11111M5.59109 7.22222V11.8889M8.65182 7.22222V11.8889M9.417 4.11111V1.77778C9.417 1.5715 9.33638 1.37367 9.19288 1.22781C9.04938 1.08194 8.85476 1 8.65182 1H5.59109C5.38815 1 5.19352 1.08194 5.05003 1.22781C4.90653 1.37367 4.82591 1.5715 4.82591 1.77778V4.11111M1 4.11111H13.2429" stroke="#120C0C" stroke-width="1.5" stroke-linecap="round" stroke-linejoin="round"/>
</svg>
