<svg width="26" height="20" viewBox="0 0 26 20" fill="none" xmlns="http://www.w3.org/2000/svg">
<g id="Group 15">
<g id="Group 13">
<path id="Line 27" d="M1.10938 3.27509H24.6353" stroke="#FEFBFB" stroke-width="2" stroke-linecap="round"/>
<path id="Ellipse 4" d="M19.271 3.27514C19.271 4.93573 17.9969 6.25921 16.4524 6.25921C14.9079 6.25921 13.6338 4.93573 13.6338 3.27514C13.6338 1.61456 14.9079 0.291077 16.4524 0.291077C17.9969 0.291077 19.271 1.61456 19.271 3.27514Z" fill="#FEFBFB" stroke="#FEFBFB" stroke-width="0.5"/>
</g>
<g id="Group 12">
<path id="Line 28" d="M1.10938 9.74341H24.6353" stroke="#FEFBFB" stroke-width="2" stroke-linecap="round"/>
<path id="Ellipse 5" d="M10.0654 9.74341C10.0654 11.404 8.79129 12.7275 7.24683 12.7275C5.70236 12.7275 4.42822 11.404 4.42822 9.74341C4.42822 8.08282 5.70236 6.75934 7.24683 6.75934C8.79129 6.75934 10.0654 8.08282 10.0654 9.74341Z" fill="#FEFBFB" stroke="#FEFBFB" stroke-width="0.5"/>
</g>
<g id="Group 14">
<path id="Line 29" d="M1.10938 16.2114H24.6353" stroke="#FEFBFB" stroke-width="2" stroke-linecap="round"/>
<path id="Ellipse 6" d="M23.3623 16.2114C23.3623 17.872 22.0882 19.1955 20.5437 19.1955C18.9992 19.1955 17.7251 17.872 17.7251 16.2114C17.7251 14.5508 18.9992 13.2274 20.5437 13.2274C22.0882 13.2274 23.3623 14.5508 23.3623 16.2114Z" fill="#FEFBFB" stroke="#FEFBFB" stroke-width="0.5"/>
</g>
</g>
</svg>
