<svg width="26" height="14" viewBox="0 0 26 14" fill="none" xmlns="http://www.w3.org/2000/svg">
<path d="M1 2H24.526" stroke="#120C0C" stroke-width="1.5" stroke-linecap="round"/>
<path d="M1 7H24.526" stroke="#120C0C" stroke-width="1.5" stroke-linecap="round"/>
<path d="M1 12H24.526" stroke="#120C0C" stroke-width="1.5" stroke-linecap="round"/>
<path d="M17.7495 2C17.7495 2.9665 16.966 3.75 15.9995 3.75C15.033 3.75 14.2495 2.9665 14.2495 2C14.2495 1.0335 15.033 0.25 15.9995 0.25C16.966 0.25 17.7495 1.0335 17.7495 2Z" fill="#120C0C" stroke="#120C0C" stroke-width="0.5"/>
<path d="M9.74951 7C9.74951 7.9665 8.96601 8.75 7.99951 8.75C7.03301 8.75 6.24951 7.9665 6.24951 7C6.24951 6.0335 7.03301 5.25 7.99951 5.25C8.96601 5.25 9.74951 6.0335 9.74951 7Z" fill="#120C0C" stroke="#120C0C" stroke-width="0.5"/>
<path d="M21.7495 12C21.7495 12.9665 20.966 13.75 19.9995 13.75C19.033 13.75 18.2495 12.9665 18.2495 12C18.2495 11.0335 19.033 10.25 19.9995 10.25C20.966 10.25 21.7495 11.0335 21.7495 12Z" fill="#120C0C" stroke="#120C0C" stroke-width="0.5"/>
</svg>
