<svg width="27" height="18" viewBox="0 0 27 18" fill="none" xmlns="http://www.w3.org/2000/svg">
<path d="M1 8.81322C2.63035 4.2849 7.48171 1 13.211 1C18.9415 1 23.7916 4.2849 25.4219 8.81322C23.7916 13.3415 18.9415 16.6264 13.211 16.6264C7.48171 16.6264 2.63035 13.3415 1 8.81322Z" fill="#F8F8F7" stroke="#120C0C" stroke-width="1.5" stroke-linecap="round" stroke-linejoin="round"/>
<path d="M21 8C21 9.5913 20.3679 11.1174 19.2426 12.2426C18.1174 13.3679 16.5913 14 15 14C13.4087 14 11.8826 13.3679 10.7574 12.2426C9.63214 11.1174 9 9.5913 9 8C9 6.4087 9.63214 4.88258 10.7574 3.75736C11.8826 2.63214 13.4087 2 15 2C16.5913 2 18.1174 2.63214 19.2426 3.75736C20.3679 4.88258 21 6.4087 21 8Z" fill="#120C0C" stroke="#120C0C" stroke-width="1.5" stroke-linecap="round" stroke-linejoin="round"/>
<circle cx="10.5" cy="5.5" r="2.5" fill="#F8F8F7"/>
</svg>
