<svg width="20" height="14" viewBox="0 0 20 14" fill="none" xmlns="http://www.w3.org/2000/svg">
<path d="M1 7C2.20163 3.52257 5.7773 1 10 1C14.2236 1 17.7984 3.52257 19 7C17.7984 10.4774 14.2236 13 10 13C5.7773 13 2.20163 10.4774 1 7Z" fill="#F8F8F7" stroke="#120C0C" stroke-width="1.5" stroke-linecap="round" stroke-linejoin="round"/>
<path d="M16 6.5C16 7.69347 15.5259 8.83807 14.682 9.68198C13.8381 10.5259 12.6935 11 11.5 11C10.3065 11 9.16193 10.5259 8.31802 9.68198C7.47411 8.83807 7 7.69347 7 6.5C7 5.30653 7.47411 4.16193 8.31802 3.31802C9.16193 2.47411 10.3065 2 11.5 2C12.6935 2 13.8381 2.47411 14.682 3.31802C15.5259 4.16193 16 5.30653 16 6.5Z" fill="#120C0C" stroke="#120C0C" stroke-width="1.5" stroke-linecap="round" stroke-linejoin="round"/>
<circle cx="8" cy="4" r="2" fill="#F8F8F7"/>
</svg>
