<svg width="27" height="18" viewBox="0 0 27 18" fill="none" xmlns="http://www.w3.org/2000/svg">
<g id="Group 34">
<path id="Vector" d="M22.2908 9.25155C22.2908 11.0277 21.5656 12.7311 20.2746 13.9871C18.9836 15.243 17.2326 15.9486 15.4069 15.9486C13.5812 15.9486 11.8302 15.243 10.5392 13.9871C9.24822 12.7311 8.52295 11.0277 8.52295 9.25155C8.52295 7.47538 9.24822 5.77196 10.5392 4.51602C11.8302 3.26008 13.5812 2.5545 15.4069 2.5545C17.2326 2.5545 18.9836 3.26008 20.2746 4.51602C21.5656 5.77196 22.2908 7.47538 22.2908 9.25155Z" stroke="#FEFBFB" stroke-width="1.5" stroke-linecap="round" stroke-linejoin="round"/>
<path id="Vector_2" d="M1.10938 9.25157C2.73972 4.72325 7.59109 1.43835 13.3203 1.43835C19.0509 1.43835 23.901 4.72325 25.5313 9.25157C23.901 13.7799 19.0509 17.0648 13.3203 17.0648C7.59109 17.0648 2.73972 13.7799 1.10938 9.25157Z" stroke="#FEFBFB" stroke-width="1.5" stroke-linecap="round" stroke-linejoin="round"/>
</g>
</svg>
