<?xml version="1.0" encoding="UTF-8"?>
<svg id="Calque_2" data-name="Calque 2" xmlns="http://www.w3.org/2000/svg" viewBox="0 0 80.28 79.91">
  <defs>
    <style>
      .cls-1 {
        fill: #f9f7f7;
      }

      .cls-1, .cls-2 {
        stroke-width: 0px;
      }

      .cls-2 {
        fill: #110a05;
      }
    </style>
  </defs>
  <g id="Calque_28" data-name="Calque 28">
    <g>
      <g>
        <path class="cls-1" d="m11.14,6.54c.16.05.2-.12.25-.23.08-.18.04-.17,0-.33-.06-.21-.05-.46-.25-.62-.1-.08-.2-.1-.31-.15-.18-.08-.29-.09-.47-.13-.28-.07-.61-.15-.9-.06-.17.05-.31.15-.48.2-.21.05-.3.14-.48.25-.07.04-.15.05-.22.09-.08.05-.12.13-.19.17-.16.09-.33.07-.49.19-.36.27-.7.58-1.06.85-.15.11-.32.21-.45.34-.2.2-.36.44-.56.64-.56.58-1.05,1.2-1.48,1.89-.11.18-.16.35-.3.52-.13.15-.24.29-.35.46-.24.4-.53.77-.75,1.18-.18.33-.37.62-.48.99-.05.17-.11.31-.19.47-.11.22-.14.45-.21.68-.25.76-.37,1.56-.12,2.33.07.22.22.37.33.56.08.13.11.33.22.43.09.08.08.04.16.07.11.05.16.12.27.19.14.09.34.04.5.04.33,0,.56-.13.84-.29.1-.06.22-.06.31-.11s.19-.15.29-.22c.17-.12.41-.2.55-.34.02.16-.19.35-.28.46-.13.16-.26.33-.4.48-.24.28-.44.58-.59.92-.13.28-.36.46-.51.73-.18.34-.4.65-.58.99-.29.55-.48,1.12-.71,1.69-.06.15-.1.33-.14.49-.03.12-.01.22-.03.34-.05.3-.16.57-.16.88s.08.6.08.91c0,.34.11.55.23.87s.29.59.54.83c.09.08.18.12.27.19.04.03.07.08.11.11.12.09.24.08.38.13.29.11.51.26.83.25.29,0,.6.03.88-.02.49-.08,1.01-.22,1.48-.38.33-.11.63-.38.91-.58.15-.11.27-.22.4-.35.15-.15.35-.26.49-.41.28-.33.62-.59.95-.88.13-.11.21-.26.32-.39.08-.09.17-.28.28-.32-.14.27-.25.56-.28.86-.04.45.19.81.5,1.11.26.25.68.46,1.02.58.26.09.57.12.84.08.23-.04.47-.03.69-.08.19-.04.38-.05.57-.1.22-.06.41-.15.63-.19.5-.09.98-.38,1.45-.56.44-.17.78-.46,1.15-.72.22-.16.49-.25.67-.45.13-.15.3-.54.57-.49-.07.12-.1.25-.15.39-.09.23-.16.53-.15.78,0,.27-.03.56.05.82.09.31.24.61.36.9.24.58.82,1.18,1.37,1.49.31.17.68.21,1.01.32.37.13.82.05,1.2.05,1.46,0,2.92-.21,4.16-1.05.23-.16.47-.26.68-.44.33-.28.65-.5.91-.84.25-.31.64-.55.84-.9.12-.21.16-.36.34-.53-.08.09-.19.13-.27.2-.12.11-.16.24-.21.39-.08.26-.31.44-.41.69-.06.15-.09.27-.2.41-.09.11-.11.15-.13.29-.05.28-.22.49-.3.76-.07.24-.22.43-.3.66-.09.26-.22.52-.32.79-.26.68-.45,1.37-.69,2.05-.26.73-.36,1.5-.58,2.23-.1.34-.17.77-.19,1.13-.03.41.07.8.08,1.21.03.81.42,1.57.83,2.26.07.12.17.21.24.32.09.14.1.29.23.42.26.27.51.46.86.59.26.1.56.08.83-.03.37-.15.77-.26,1.15-.38.74-.23,1.41-.51,1.99-1.04-.22.24-.5.34-.7.61-.13.18-.24.3-.39.46-.2.21-.33.49-.48.73-.09.15-.21.28-.31.42-.19.28-.3.59-.48.87-.26.39-.4.79-.61,1.21-.47.97-.86,1.97-1.28,2.95-.18.41-.29.87-.45,1.29-.05.14-.13.27-.17.41-.02.12-.03.23-.05.35-.05.25-.11.5-.2.75-.07.23-.18.48-.22.72-.08.47-.17.95-.23,1.43-.05.38,0,.77.04,1.15.01.09,0,.23.01.32.04.26.16.52.22.78.09.4.23.48.64.6.07.02.21.09.29.1.13.01.34-.09.47-.14.27-.11.59-.17.85-.3.12-.06.19-.18.31-.24.14-.08.32-.12.46-.21.12-.08.2-.19.31-.27.09-.07.21-.11.28-.2-.17.14-.29.47-.4.65-.17.29-.34.59-.5.89-.26.52-.48,1.06-.7,1.6-.11.28-.27.56-.37.85-.07.21-.13.44-.2.66-.22.68-.23,1.42-.47,2.09-.07.2-.11.34-.11.55,0,.72-.07,1.5-.2,2.21-.04.23-.04.44-.09.66-.11.48.06,1.05.12,1.54.03.28.13.51.17.77.02.14.02.17.12.28.18.19.38.37.57.56.23.23.34.25.67.18.25-.05.53-.1.76-.21.2-.1.4-.2.58-.33.15-.11.33-.31.52-.32-.1.14-.17.28-.26.42s-.22.26-.31.41c-.25.46-.38.95-.54,1.44-.07.21-.09.4-.17.59-.04.1-.06.16-.07.27-.06.46-.24.93-.23,1.38.01.57-.16,1.15-.02,1.7.05.19.08.34.15.53.06.14.14.42.23.56.14.22.54.21.79.16.09-.06.19-.1.29-.15.11-.04.21-.07.32-.09.12-.06.21-.15.33-.21.07.09-.21.35-.27.46-.14.25-.2.53-.33.77-.15.26-.11.48-.11.79,0,.25-.04.53,0,.79.07.43.25.84.3,1.28.02.16.04.31.1.46.19.52.49,1.05.78,1.51.26.41.88.64,1.28.89.13.08.26.17.4.22.23.08.53.09.76.13s.47.07.71.1c.21.03.35,0,.55-.05.4-.07.76-.26,1.13-.43.28-.13.58-.23.86-.36.26-.13.51-.29.76-.45.16-.1.28-.33.46-.37.04.1,0,.22,0,.32,0,.14.06.29.09.43.04.21.17.27.35.38.17.1.37.28.56.31.3.06.83,0,1.08-.02.39-.02.77-.07,1.16-.06.28,0,.49-.05.76-.12,1.28-.33,2.48-.97,3.71-1.46.29-.11.54-.25.8-.4.96-.53,1.89-1.2,2.79-1.84.41-.3.96-.64,1.3-1.04.14-.17.3-.29.47-.45.77-.7,1.51-1.45,2.24-2.19.16-.16.35-.29.49-.47.12-.15.21-.24.35-.36.09-.08.46-.66.51-.73.26-.37.51-.74.77-1.11.21-.3.47-.56.67-.86.21-.32.33-.67.47-1.03.22-.57.46-1.15.64-1.73.08-.27.07-.57.1-.86.02-.21.06-.44.04-.65-.04-.39-.26-.79-.45-1.12-.14-.25-.41-.61-.7-.69-.24-.07-.53-.04-.78-.09-.14-.03-.25-.05-.39-.06-.48,0-.93.17-1.39.23-.43.05-.87.27-1.17.59-.12.12-.26.19-.39.27-.16.1-.21.25-.39.34.18-.27.43-.5.62-.78.08-.12.13-.24.21-.36.26-.4.49-.82.74-1.23.1-.15.18-.28.22-.46.16-.64.41-1.26.57-1.9s.06-1.27.06-1.94c0-.12.03-.26,0-.37-.09-.33-.39-.69-.58-.98-.12-.18-.12-.27-.3-.4-.25-.16-.5-.32-.73-.49-.29-.21-.79-.32-1.15-.31-.32,0-.96.11-1.19.39-.01-.09.13-.15.19-.21.08-.08.16-.16.24-.26.32-.42.52-.9.7-1.39.31-.84.62-1.69.93-2.54.07-.18.12-.36.19-.54.22-.54.3-1.19.43-1.76.07-.28.1-.53.13-.81.03-.23.12-.47.16-.69.08-.43.09-.86.16-1.29.03-.18.11-.33.15-.51.07-.31,0-.75-.02-1.06-.02-.38-.07-.76-.06-1.14,0-.22.04-.45-.02-.66-.07-.26-.25-.41-.35-.64-.03-.06-.04-.25-.1-.29-.1-.08-.46-.01-.6,0-.22,0-.47.05-.69.1-.05.01-.09.05-.17.06-.06,0-.12,0-.19,0-.13.03-.35.16-.47.04.12-.15.28-.24.4-.37.25-.27.39-.64.64-.92.12-.14.26-.23.33-.4.18-.43.4-.85.61-1.28.27-.55.43-1.08.6-1.67.19-.63.38-1.26.56-1.89.05-.16.03-.31.07-.47.09-.33.06-.65.06-1.01,0-.54.05-1.11-.02-1.65-.02-.14-.06-.28-.06-.43,0-.15.02-.3-.01-.45-.08-.39-.33-.77-.5-1.13-.1-.22-.19-.46-.34-.66-.06-.07-.11-.11-.14-.2-.03-.1-.01-.15-.06-.24-.09-.17-.26-.34-.37-.5-.26-.37-.52-.71-.92-.89.14.08.28.12.43.15.61.11,1.23.21,1.84.29.15.02.35-.04.5-.07.64-.13,1.29-.44,1.89-.68.3-.12.6-.26.9-.39.26-.11.42-.13.68-.3.5-.33,1.02-.61,1.51-.94.12-.08.26-.21.4-.26-.7.39-1.18,1.18-1.5,1.89-.07.15-.18.27-.26.41-.26.51-.44,1.08-.66,1.62-.07.18-.12.39-.1.59.03.3.15.58.18.88.02.14.03.22.08.35.03.06.08.25.12.31l.22.1c.21.07.42.12.63.16.19.04.38.02.57.07.12.03.16.08.3.06.36-.05.75-.24,1.09-.35.45-.15.93-.32,1.4-.42.19-.04.31-.16.5-.21.66-.19,1.23-.72,1.8-1.1.23-.15.46-.23.66-.44.35-.36.64-.8.96-1.18.17-.2.37-.41.52-.63.09-.13.15-.3.25-.43s.22-.23.31-.36c-.15.24-.21.52-.3.79-.2.62-.44,1.21-.46,1.86-.02.38.28.73.54,1,.31.32.79,0,1.14-.12.38-.13.79-.23,1.16-.37.2-.08.42-.16.61-.25.58-.3,1.13-.83,1.62-1.26.26-.23.52-.42.79-.62.26-.19.48-.37.72-.58.68-.6,1.51-1.12,2.11-1.81.15-.18.35-.24.5-.4.49-.51.91-1.05,1.35-1.63.42-.55.8-1.15,1.25-1.67.15-.17.19-.26.3-.45.07-.11.16-.23.23-.35.23-.35.26-.69.37-1.11.13-.5.35-1.05.41-1.56.08-.66-.25-1.4-.45-2.01-.14-.42-.52-.47-.86-.69-.14-.09-.15-.13-.31-.15-.26-.04-.52.03-.78.06-.34.04-.58.05-.88.26.04-.27.41-.53.57-.74.09-.12.15-.24.23-.37.1-.15.13-.1.22-.2.13-.28.24-.57.32-.87l.2-.56c.06-.17.13-.33.19-.5.04-.08.08-.16.14-.24.02-.08,0-.15,0-.22.11-.63.15-1.29.16-1.93,0-.26.02-.52-.06-.76-.16-.48-.4-.99-.72-1.39-.29-.36-.75-.5-1.17-.68-.45-.2-.9-.46-1.37-.6s-.9-.11-1.44-.13-1.1-.09-1.65-.06c-.37.02-.81.22-1.13.35-.43.16-.87.29-1.29.46-.54.23-1.07.44-1.57.73-.2.11-.39.19-.58.32-.24.16-.38.34-.58.53-.2.21-.54.25-.64.55.17-.48.26-1.01.47-1.47.16-.35.03-.39-.27-.68s-.55-.62-.94-.77c-.45-.18-.99-.25-1.46-.37-.58-.15-1.14-.28-1.72-.4-.24-.05-.48-.17-.72-.18-.19,0-.29-.03-.47-.07-.41-.09-.89.06-1.28.12-1.89.27-3.68.56-5.47,1.22-.82.3-1.65.56-2.45.91-.47.21-.92.42-1.36.68-.22.13-.43.18-.65.31"/>
        <path class="cls-2" d="m11.14,7.59c.93,0,1.49-.95,1.29-1.8-.06-.26-.12-.54-.24-.78-.22-.41-.56-.6-.97-.77-.61-.26-1.39-.42-2.04-.24-.31.08-.71.26-.98.41s-.58.34-.85.57l.46-.27c-.37.16-.69.26-1.02.51-.26.21-.51.43-.78.63s-.54.38-.77.62-.44.51-.67.76c-.48.52-.93,1.09-1.32,1.69s-.74,1.13-1.12,1.7c-.76,1.15-1.29,2.32-1.57,3.66-.16.76-.2,1.6.07,2.34.09.24.33.58.41.72.19.35.43.94.92.98.16.01-.22-.09-.19-.12,0,0,.26.2.3.23.23.13.51.19.77.2.4,0,.8-.05,1.16-.21.63-.27,1.28-.59,1.84-1.07l-1.79-.74v.1c.04-.18.08-.35.13-.53-.24.47-.87,1.01-1.17,1.58s-.74,1.13-1.1,1.76c-.39.7-.73,1.5-.95,2.27-.08.28-.11.64-.15.88-.08.42-.17.81-.13,1.25.04.38.03.78.12,1.15s.24.72.4,1.05.39.65.66.88c.08.07.17.13.26.2.18.14.06.04.02.01.21.17.38.3.64.39s.53.22.83.3c.37.1.82.09,1.2.07.77-.05,1.65-.26,2.35-.6.66-.32,1.29-.89,1.8-1.37.29-.27.56-.56.87-.83.16-.14.28-.27.41-.44.14-.18.11-.13.08-.09.09-.11.44-.43.07-.16l-1.44-1.44c-.29.6-.52,1.25-.38,1.93.11.54.44,1.04.86,1.39s.93.63,1.46.78c.57.17,1.17.1,1.75.02,1.09-.15,2.06-.54,3.07-.96.55-.23.98-.61,1.49-.91.23-.14.47-.28.65-.48.09-.1.19-.22.26-.34l.05-.08c-.1.16-.26.24-.48.24l-.91-1.58c-.68,1.52-.56,3.17.44,4.54.49.67,1.14,1.25,1.94,1.52s1.49.31,2.29.3c1.59-.02,3.19-.28,4.55-1.15.61-.39,1.23-.79,1.73-1.32.24-.25.49-.49.72-.74s.4-.64.6-.85c.39-.41.41-1.08,0-1.48-.43-.43-1.05-.37-1.48,0,.04-.03.1-.08-.06.04-.09.07-.17.13-.25.21-.18.18-.27.37-.36.6-.1.24-.34.6-.49.9-.01.03-.1.17-.02.06-.03.05-.07.1-.11.15-.1.15-.15.32-.2.49-.1.31-.24.61-.37.91-.66,1.45-1.2,3-1.56,4.55-.18.79-.43,1.56-.49,2.38-.03.36.03.7.06,1.05.04.45.07.89.2,1.32.23.75.62,1.37,1.04,2.01.13.2.34.61.63.86.32.27.67.5,1.08.64.89.29,1.83-.17,2.67-.45s1.63-.67,2.31-1.27l-1.48-1.48c-.25.24-.55.43-.78.72-.18.22-.46.51-.65.8-.41.61-.75,1.22-1.13,1.86s-.7,1.4-1,2.1c-.35.79-.69,1.59-1.01,2.39-.13.33-.22.67-.35,1.01-.07.18-.17.36-.22.55-.04.16-.05.38-.08.5-.07.35-.21.68-.32,1.02-.12.4-.17.83-.23,1.24-.14.84-.19,1.74,0,2.59.16.72.38,1.47,1.07,1.84.33.17.8.34,1.17.33.39-.01.79-.22,1.16-.34.24-.08.49-.17.71-.32.17-.12.18-.15.3-.21.45-.23.81-.48,1.17-.81l-1.48-1.48c-.41.41-.68,1.02-.95,1.52-.34.63-.59,1.29-.87,1.95-.25.59-.5,1.16-.66,1.78s-.21,1.26-.4,1.87c-.21.66-.16,1.33-.23,2.01s-.25,1.35-.28,2.03c-.02.6.11,1.29.26,1.87.06.24.09.49.18.72.13.33.4.56.65.81.29.28.58.59.99.69.38.09.75.02,1.12-.06.35-.08.68-.2,1-.37.14-.07.27-.15.4-.24.04-.03.36-.24.27-.22l-1.19-1.54c-.25.37-.52.69-.71,1.11-.23.5-.41,1.03-.56,1.57-.13.47-.24.92-.34,1.4-.12.55-.12,1.11-.17,1.67-.05.53-.02,1.03.13,1.54.13.43.28.95.59,1.29.82.89,2.14.4,3-.13l-1.54-.63v.05c0-.19,0-.37,0-.56,0-.07.04-.13.08-.18-.07.09-.15.18-.22.28-.09.14-.14.28-.2.43-.12.29-.3.6-.37.9-.16.72-.1,1.61.09,2.31.2.74.31,1.43.65,2.13.32.65.68,1.26,1.29,1.69.48.33,1.11.74,1.67.89.3.08.66.09.93.13.44.06.82.13,1.26.06.71-.11,1.33-.44,1.98-.71.36-.15.71-.31,1.04-.52.16-.1.32-.2.46-.32.07-.05.13-.1.18-.16.09-.11.11-.12.07-.05l-1.54-.63s-.02-.12-.03-.01.02.22.04.33c.02.14.05.29.09.43.13.42.37.71.73.95.54.36,1.03.57,1.7.54.61-.03,1.21-.08,1.82-.1.69-.03,1.37-.26,2.01-.5.68-.26,1.35-.56,2.02-.85.59-.26,1.19-.49,1.76-.81,1.18-.67,2.31-1.47,3.39-2.28.52-.39.96-.85,1.43-1.28.51-.46,1-.95,1.48-1.43.76-.76,1.5-1.45,2.1-2.34.34-.5.67-1,1.04-1.47.47-.58.75-1.17,1.03-1.86.25-.63.56-1.28.68-1.94s.23-1.55,0-2.23-.63-1.44-1.23-1.89c-.38-.28-.78-.34-1.23-.38-.26-.02-.61-.11-.94-.09-.41.02-.8.13-1.2.21-.38.08-.71.14-1.07.3-.33.15-.62.43-.86.61-.04.03-.2.12-.28.18-.09.06-.17.13-.25.2-.03.02-.18.14-.06.07l1.44,1.44c.19-.27.43-.5.62-.78.16-.25.31-.51.46-.76.36-.61.7-1.17.9-1.85.21-.73.5-1.43.59-2.19.07-.63.03-1.3,0-1.93-.03-.67-.46-1.13-.79-1.67s-.9-.92-1.45-1.23c-1.02-.57-2.66-.58-3.52.3l1.75,1.02.03-.08-.27.46c-.13.11.19-.15.24-.21.12-.12.22-.25.32-.39.18-.25.33-.52.46-.8.3-.66.53-1.35.78-2.03.23-.63.46-1.26.68-1.89.22-.59.32-1.22.45-1.83.06-.29.08-.6.14-.88.07-.33.16-.66.2-1,.04-.3.04-.62.11-.91.07-.33.19-.62.2-.97.02-.62-.11-1.25-.11-1.87,0-.32.03-.64-.05-.96s-.26-.56-.41-.85c.1.18-.05-.19-.07-.22-.1-.24-.26-.44-.49-.57-.3-.17-.65-.17-.98-.15s-.69.04-1.02.13c-.04,0-.32.09-.32.12,0-.06.45-.06.18-.08-.1,0-.23.03-.32.05-.06.01-.24.03-.07.03l.53.14-.08-.04.21,1.65c.25-.27.52-.48.74-.8.16-.24.3-.46.49-.68.27-.3.4-.64.57-1,.16-.33.34-.66.48-1,.32-.73.53-1.49.76-2.25s.48-1.54.54-2.36c.05-.72.06-1.51,0-2.22-.03-.36-.05-.74-.11-1.1-.07-.42-.26-.8-.45-1.18-.16-.31-.28-.65-.47-.94-.06-.1-.13-.19-.21-.27.11.18.13.19.06.02-.05-.22-.19-.39-.32-.56-.39-.51-.8-1.14-1.45-1.46-.51-.25-1.14-.14-1.44.38-.27.47-.13,1.18.38,1.44.78.4,1.78.47,2.64.56.8.09,1.62-.26,2.35-.56s1.51-.56,2.2-.93c.37-.2.72-.45,1.09-.66.32-.19.62-.45.95-.6l-1.06-1.81c-.61.36-1.08.88-1.46,1.47-.33.51-.64,1.09-.88,1.64-.3.7-.74,1.54-.7,2.31.01.34.13.68.19,1.01.06.3.12.58.24.87.37.86,1.35.82,2.13,1,.38.09.67.12,1.06.02.33-.08.64-.23.96-.33.68-.23,1.36-.42,2.02-.67s1.2-.7,1.8-1.1c.32-.21.65-.37.93-.64s.52-.63.77-.94c.51-.65.97-1.26,1.43-1.87l-1.81-1.06c-.28.51-.44,1.1-.61,1.65-.19.6-.39,1.3-.25,1.93.11.51.43.98.8,1.34.48.46,1.13.54,1.74.32.39-.14.81-.28,1.3-.44.52-.17,1.06-.38,1.51-.68s.89-.69,1.3-1.06.84-.67,1.26-1c.82-.65,1.71-1.29,2.43-2.05.29-.31.7-.6,1.01-.95.39-.45.75-.92,1.11-1.4.62-.82,1.3-1.63,1.81-2.52.26-.45.34-.95.47-1.44.16-.57.36-1.11.41-1.71.05-.64-.14-1.28-.34-1.88-.22-.65-.45-1.16-1.07-1.51-.48-.27-.9-.54-1.48-.52-.64.02-1.41.12-1.95.47l1.54,1.19c-.05.17.1-.06.15-.11.13-.14.25-.28.36-.44.05-.08.11-.16.15-.24.11-.26-.43.34-.07.08.27-.19.38-.44.5-.74.14-.33.24-.68.36-1.01.13-.37.38-.79.44-1.16.13-.75.19-1.64.19-2.45,0-.86-.34-1.72-.84-2.41s-1.17-.95-1.83-1.26c-.79-.37-1.52-.72-2.4-.77-.82-.04-1.69-.15-2.51-.07-.76.08-1.51.44-2.23.7-.87.31-1.72.71-2.53,1.15-.41.22-.67.54-1.02.83.09-.07-.18.09-.24.13-.24.16-.45.37-.57.63l1.92.81c.11-.32.19-.64.28-.96.11-.37.29-.69.28-1.08-.02-.68-.69-1.25-1.17-1.65-.6-.5-1.29-.65-2.04-.81s-1.45-.3-2.16-.5c-.3-.08-.77-.16-.95-.19-.24-.04-.73-.1-1.08-.05-.74.1-1.48.23-2.21.35-1.45.24-2.87.57-4.26,1.07-1.57.57-3.09,1.16-4.56,1.94-.5.27-.65.96-.38,1.44.3.51.93.64,1.44.38,2.85-1.52,5.92-2.46,9.11-2.93.72-.11,1.32-.25,2.04-.09.29.06.61.18.91.25.42.09.84.2,1.25.3.39.09.8.15,1.18.27.25.08.37.2.56.4.1.1.25.32.38.37-.03-.67-.09-.84-.19-.52-.04.09-.08.19-.11.29-.14.39-.22.79-.35,1.19-.37,1.11,1.42,1.9,1.92.81-.04.01-.07.04-.1.06.06-.04.13-.07.19-.11.14-.09.27-.18.38-.29.21-.19.34-.37.6-.5.55-.3,1.1-.57,1.67-.81.62-.25,1.27-.49,1.91-.7.56-.18,1.31-.03,1.96,0s1.09.06,1.66.33c.34.16.68.3,1.02.46.03.02.38.2.39.22.95.93.45,2.5.38,3.66l.14-.53c-.22.34-.34.75-.48,1.13-.07.19-.13.38-.2.57-.03.1-.06.2-.1.29-.12.25-.05.21.19-.12-.33.09-.53.62-.7.82-.29.33-.56.6-.69,1.04-.25.85.76,1.69,1.54,1.19.06-.04.21-.1.21-.1.19-.05.52.01.68-.08h.08c-.22-.1-.28-.12-.18-.06.04.05.11.08.17.11.04.02.44.26.46.24-.03.02-.12-.21-.13-.21,0,0,.08.24.09.27.07.21.15.43.21.65.1.34.14.62.06.96-.1.41-.24.8-.34,1.21-.09.36-.14.63-.32.91-.42.64-.91,1.26-1.42,1.96-.43.6-.93,1.33-1.46,1.8-.18.16-.39.28-.56.46-.13.14-.27.28-.41.41-.31.28-.64.53-.97.79-.68.53-1.37,1.07-2.03,1.62-.56.46-1.08,1.04-1.75,1.32-.44.18-.9.28-1.35.44-.07.02-.13.05-.2.08-.15.06-.25.07-.33.13h-.06c-.23.07-.07.12.47.18,0-.04-.16-.18-.17-.19-.14-.16.03-.59.12-.88.13-.42.24-.92.45-1.3.28-.5.12-1.15-.38-1.44-.54-.31-1.09-.08-1.44.38.07-.09-.09.08-.1.1-.08.1-.17.2-.23.31-.09.14-.15.29-.25.42-.28.37-.6.72-.89,1.09-.12.15-.25.34-.39.46-.13.1-.31.18-.45.27-.36.23-.69.51-1.05.74-.71.45-1.54.6-2.33.86-.21.07-.41.15-.62.22-.11.04-.25.05-.35.11-.15.08.2.04.1,0-.35-.18-.85-.07-1.22-.24l.38.38c.11.22,0,0-.01-.05-.03-.12-.04-.15-.04-.09,0,.12-.02.03-.04-.26-.03-.21-.19-.53-.16-.73.03-.19.18-.44.25-.62.09-.24.17-.48.28-.71.19-.42.45-.85.68-1.25.22-.37.46-.68.8-.89.49-.29.66-.94.38-1.44-.31-.52-.92-.62-1.44-.38-.29.14-.54.35-.81.52-.32.2-.65.39-.97.59-.45.28-1.09.52-1.67.76-.31.13-.62.27-.94.38-.28.1-.69.28-.99.27-.13,0-.63-.12-.87-.16-.17-.03-.33-.06-.5-.09-.06-.01-.41-.1-.35-.07l-1.06,1.81c.34.17.69.62.85.9.05.09.1.33.19.47.08.12.17.22.24.35.14.26.26.55.39.82.23.46.24,1.04.26,1.55.02.59.04,1.24-.02,1.82-.08.67-.31,1.31-.51,1.95-.17.58-.32,1.18-.57,1.74-.21.49-.47,1.13-.75,1.52-.19.26-.4.5-.58.77-.16.26-.35.39-.56.61-.44.48-.41,1.32.21,1.65.32.17.64.23.99.15.03,0,.35-.12.11-.05.13-.03.28-.01.42-.05.06-.02.12-.04.17-.07.13-.08.16-.08.08,0,.07,0,.14-.02.21-.03.08,0,.15-.01.23-.02.22-.02.34.07-.09-.12l-.38-.38c-.13-.21-.04-.04,0,.04.06.19.16.35.26.51.12.18.09.15.08.44-.01.63.12,1.25.11,1.88,0,.19-.09.37-.14.62-.07.36-.09.72-.13,1.08-.03.26-.11.51-.16.76-.07.33-.07.58-.14.88-.13.62-.24,1.24-.45,1.83s-.43,1.21-.66,1.81c-.21.56-.38,1.14-.63,1.68-.09.2-.22.45-.34.61-.14.19-.46.42-.62.84-.38,1.01,1.06,1.73,1.75,1.02-.13.13.03,0,0,0-.07.02.18-.04.21-.05.32-.09-.06,0,.1-.02.08,0,.17-.01.25,0,.3.01.53.19.88.42.05.03.22.13.25.15-.07-.06-.06-.08-.01.02.09.18.24.35.36.52,0,.01.21.33.2.34-.03.01-.01-.35-.05-.06s0,.58.02.86c.02.54-.05.97-.21,1.48-.14.44-.26,1.03-.43,1.39-.21.46-.53.9-.8,1.33s-.58.79-.87,1.21c-.62.87.58,1.97,1.44,1.44.14-.08.26-.19.38-.29.25-.22-.21.11.11-.11.21-.14.4-.32.6-.47.34-.25.81-.26,1.22-.35.13-.03.41-.08.47-.08.08,0,.93.1.93.12,0,0-.57.11-.18-.08.03-.02.16.18.17.19.14.19.28.45.34.68.1.36,0,.89-.08,1.25-.14.64-.45,1.26-.69,1.87-.15.4-.37.71-.63,1.04-.41.51-.77,1.05-1.13,1.59-.08.12-.16.23-.23.35-.04.05-.07.11-.11.16-.15.23.12-.12,0,0-.36.34-.72.71-1.07,1.06-.81.81-1.69,1.57-2.49,2.4-.73.77-1.72,1.35-2.6,1.94-.46.3-.92.6-1.41.86-.55.3-1.13.51-1.7.76s-1.1.49-1.67.68c-.3.1-.6.21-.91.27-.27.06-.54.04-.82.06-.46.03-1.08.18-1.54.09.26.05-.29-.26-.34-.25l.23.31c-.02-.09-.05-.19-.07-.28.04.06.04.03.03-.08-.01-.13-.03-.26-.05-.38-.12-.73-1-.88-1.54-.63-.23.11-.41.32-.58.45-.23.17-.51.32-.77.43-.51.22-1.05.53-1.6.62-.18.03-.34,0-.56-.04-.26-.04-.57-.04-.79-.11-.3-.1-.9-.46-1.1-.62-.13-.1-.25-.33-.38-.57s-.27-.48-.36-.73c-.1-.28-.1-.59-.18-.89-.06-.24-.16-.48-.2-.72-.04-.3.05-.61,0-.92v-.13c-.05.17-.05.2,0,.09.11-.08.16-.37.22-.51.02-.05.12-.31.05-.16-.06.07-.05.06.02-.03.07-.08.13-.17.19-.25.22-.34.27-.63.19-1.03-.13-.67-1-.96-1.54-.63-.15.09-.24.14-.4.2-.13.05-.27.11-.4.17.22-.03.24-.04.07-.03.04.02.47.23.42.3.02-.03-.14-.38-.15-.42-.2-.62-.11-1.34-.04-1.98.08-.7.31-1.42.53-2.09.1-.3.18-.62.34-.9.14-.23.39-.56.57-.83.52-.78-.34-1.77-1.19-1.54-.34.09-.65.36-.88.5-.25.16-.45.24-.72.31-.09.02-.17.04-.26.05h.05c0-.06.55.32.08-.14-.04-.04-.29-.33-.34-.34.14.31.19.37.15.18-.01-.09-.03-.17-.05-.25-.11-.47-.26-1.04-.24-1.49.04-.79.25-1.57.3-2.36.02-.3-.01-.64.05-.92.08-.32.19-.63.25-.96.12-.65.23-1.31.47-1.93s.53-1.29.82-1.91c.17-.35.35-.69.55-1.03.06-.11.13-.22.18-.33.03-.07.07-.14.11-.21.07-.12.08-.13.03-.04.96-.96-.49-2.39-1.48-1.48.04-.04-.23.16-.28.2s-.11.09-.15.14c-.09.13.02,0,.07-.03-.18.08-.37.14-.53.25-.09.06-.2.17-.28.21-.24.11-.53.13-.75.26-.07.04-.23.03.04.04s.11,0,.03-.04c-.05-.02-.1-.03-.15-.05-.08-.03-.02.04-.03,0-.02-.08.11.15.18.19.07.04.03.11,0-.03-.04-.16-.09-.31-.14-.46-.07-.21-.08-.49-.1-.76-.06-.65.07-1.33.21-1.96.07-.3.19-.58.28-.87.04-.15.08-.3.11-.45.02-.12.03-.24.05-.36,0-.04.04-.17,0-.07.17-.58.41-1.18.65-1.74.52-1.23.99-2.52,1.64-3.68.35-.61.7-1.15,1.06-1.74.16-.27.37-.49.57-.73s.46-.38.69-.61c.4-.4.4-1.09,0-1.48-.42-.42-1.06-.38-1.48,0-.38.34-.84.55-1.32.71-.28.09-.57.17-.86.26-.16.05-.5.25-.63.25-.16,0-.34-.17-.43-.27,0,0-.01.03,0,.04.06.06-.11-.24-.1-.23-.08-.16-.2-.28-.3-.43-.31-.46-.59-1.01-.68-1.56s-.15-1.13-.07-1.66c.1-.64.31-1.29.46-1.92.3-1.25.73-2.55,1.26-3.72.13-.28.25-.57.38-.85.09-.19.14-.38.22-.58-.05.14.09-.13.12-.19.05-.1.15-.35.17-.38.08-.14.19-.25.26-.39.04-.08.2-.54.23-.54.08,0-.41.34-.17.25.12-.05.25-.18.35-.27l-1.48-1.48c-.23.24-.33.49-.51.74-.14.2-.37.36-.54.53-.36.38-.72.78-1.17,1.05-.47.29-.92.59-1.45.77-.55.19-1.12.29-1.7.33-1,.07-2.17.21-2.95-.54-.71-.68-1.06-1.74-.66-2.63.33-.73-.06-1.54-.91-1.58-.55-.02-.96.3-1.27.72-.08.11-.16.17-.04.08-.17.12-.36.21-.53.33-.73.52-1.47.92-2.35,1.14-.64.16-1.46.51-2.11.28-.25-.09-.53-.24-.69-.44-.02-.03-.08-.21-.07-.09-.01-.13.08-.33.14-.46.21-.42.18-.93-.16-1.27-.31-.31-.9-.44-1.27-.16-.26.19-.46.43-.57.58-.19.25-.42.44-.68.67-.42.37-.77.74-1.19,1.1-.46.39-.88.57-1.46.72-.25.06-.5.13-.76.13s-.52,0-.64-.04c-.15-.06-.33-.18-.49-.2-.23-.02.15.08.1.1,0,0-.22-.19-.16-.14-.06-.05-.13-.09-.2-.15.03.02.09.09-.01-.02-.09-.09-.15-.19-.21-.3-.23-.45-.31-.99-.28-1.51.01-.29.13-.59.16-.88,0-.02.02-.21,0-.06.01-.06.03-.12.04-.19.04-.16.09-.31.15-.46.24-.62.48-1.21.83-1.78.21-.35.36-.6.59-.9.19-.25.3-.54.47-.8s.39-.5.59-.75c.32-.38.49-.66.56-1.16.05-.4-.3-.82-.65-.96-.41-.17-.81-.07-1.15.22-.04.03-.26.12-.34.18-.1.08-.2.16-.31.24.19-.08.23-.11.11-.07-.12-.07-.67.3-.72.31h-.13c-.25,0-.18.04.2.13-.03-.12-.53-.34-.62-.34.45.47.57.51.35.11l-.05-.11c-.05-.09-.2-.25-.23-.31-.29-.58,0-1.34.16-1.91s.4-1.15.71-1.69c.19-.34.41-.65.62-.98.19-.29.43-.56.61-.85.35-.57.68-1.12,1.12-1.62.42-.48.82-.97,1.32-1.36.31-.24.62-.48.92-.74.15-.12.16-.13.02-.02.09-.02.17-.05.25-.09.26-.1.45-.26.66-.44l-.46.27c.43-.18.94-.6,1.38-.51.12.02.26.05.38.09.08.02.16.05.23.08l-.04-.02c-.18-.33-.25-.38-.18-.17l.02.11c.12.49-.05-.2.15-.35l.74-.31h-.1c-1.35,0-1.35,2.1,0,2.1h0Z"/>
      </g>
      <g>
        <path class="cls-1" d="m11.61,6.7c.13-.18.37-.34.56-.44s.33-.25.52-.33c.42-.17.78-.45,1.19-.65.15-.07.26-.14.4-.23.15-.1.33-.1.49-.17.33-.14.62-.39.96-.52.11-.04.23-.05.35-.1.12-.05.24-.11.36-.16.14-.05.28-.1.43-.15s.25-.15.4-.2c.33-.11.65-.2.97-.35s.66-.18.99-.25c.16-.04.32-.1.48-.14s.31,0,.47-.02c.3-.06.61-.14.92-.15.54,0,1.22-.1,1.73.07.11.04.17.11.27.15.07.03.15,0,.22.03.09.04.1.09.17.14.28.21.53.39.68.72.14.3.24.59.32.9.07.27.17.57.16.85-.01.25-.19.5-.31.73-.13.25-.32.47-.46.71.16-.16.31-.33.46-.5.12-.13.22-.15.37-.24.13-.08.27-.24.36-.36.19-.24.33-.3.6-.44.13-.06.26-.14.38-.21.19-.11.39-.2.58-.31.37-.23.78-.4,1.17-.59,1.54-.74,3.14-1.33,4.76-1.84.23-.07.47-.12.7-.19.26-.08.56-.14.83-.19.24-.05.46-.1.7-.11.29-.02.54-.17.81-.22.42-.08.85-.07,1.26-.19.47-.13,1-.11,1.49-.19.35-.06.73-.02,1.08-.02.37,0,.84-.08,1.2.01.12.03.2.11.32.14.1.02.2,0,.29,0,.23,0,.46.08.68.14.37.1.81.19,1.13.4.24.16.47.37.7.55.15.11.32.21.46.34.1.09.15.22.23.32.1.12.19.18.31.27.16.12.35.3.44.47.18.3.33.56.33.93,0,.2-.03.35-.06.54-.02.12-.13.5-.08.59.19-.08.4-.31.57-.44.22-.17.38-.24.64-.35.39-.15.71-.24,1.14-.21.39.02.91.27,1.14.58.09.12.21.27.2.43,0,.11-.09.32-.23.31"/>
        <path class="cls-2" d="m12.35,7.44c.23-.27.64-.49,1-.67.46-.23.89-.53,1.36-.76.2-.1.48-.17.72-.29.2-.1.39-.25.59-.34.42-.19.98-.32,1.45-.55.43-.21.93-.4,1.39-.52.49-.13.96-.21,1.45-.28.54-.07,1.04-.15,1.58-.16.12,0,.25,0,.37,0-.26,0,.28.04.12,0,.15.05.25.16.42.21.16.04.34.04.5.07l-.53-.14c-.18-.13.23.19.25.21.02.02.18.18.16.15.17.26.24.61.32.9.08.32.13.25-.02.52-.16.29-.35.55-.52.83-.61,1.02.81,2.13,1.65,1.27.13-.13.26-.26.37-.4.1-.13.07-.07.24-.18.2-.13.38-.29.54-.47.05-.06.1-.12.16-.18.08-.08-.1.05.07-.04.74-.38,1.46-.79,2.21-1.15,1.63-.77,3.32-1.45,5.06-1.91.78-.21,1.59-.29,2.35-.53.4-.13.81-.13,1.22-.2s.81-.14,1.23-.19.8-.07,1.23-.06c.35,0,.79-.08,1.09-.02-.11-.02-.21-.04.2.1.15.05.19.06.39.08.16.01.28,0,.43.03.33.06.76.15,1.04.3.12.06.25.17.36.27.21.18.48.32.67.51.11.11.22.31.34.43.15.14.32.23.46.39.17.2.25.4.22.56-.07.44-.2.84-.1,1.29.14.7.98.92,1.54.63.24-.12.53-.41.67-.52.22-.16.43-.24.7-.3s.4-.07.62.03c.11.05.16.1.25.3l-.14-.53c.05-.12.1-.23.17-.34l.46-.27-.08.02c-.56.11-.88.77-.73,1.29.16.58.73.85,1.29.73.87-.18,1.2-1.23.85-1.96-.31-.64-.9-1.06-1.56-1.29s-1.39-.13-2.02.1c-.3.11-.6.23-.86.4-.24.16-.48.42-.67.52l1.54.63c.09.43-.02.4.04.17.02-.07.03-.14.04-.2.04-.22.08-.45.09-.68.03-.53-.13-1.03-.4-1.49-.24-.42-.56-.63-.89-.96-.12-.12-.2-.3-.33-.43-.17-.17-.38-.28-.57-.43-.42-.32-.78-.65-1.28-.85-.42-.17-.87-.29-1.31-.38-.13-.03-.29-.05-.42-.06.02,0-.28,0-.28,0l.17.04-.25-.11c-.13-.04-.24-.07-.37-.09-.46-.07-.91,0-1.37,0-1.03-.01-2,.17-3.01.32-.44.06-.87.08-1.29.22s-.87.17-1.31.26c-1.94.39-3.86,1.16-5.66,1.96-.99.44-1.93.96-2.89,1.45-.21.11-.4.21-.58.37-.15.13-.25.3-.4.43-.09.07-.34.21-.47.33-.2.18-.36.39-.54.58l1.65,1.27c.28-.47.64-.91.81-1.44.19-.6.03-1.23-.14-1.82s-.4-1.18-.84-1.61c-.07-.07-.15-.13-.23-.2-.06-.05-.35-.29-.23-.19-.33-.27-.63-.35-1.05-.4l.53.14c-1.13-.62-2.4-.36-3.61-.2-.58.07-1.14.17-1.71.32s-1.21.41-1.76.67c-.51.23-.97.32-1.46.56-.24.12-.46.3-.71.41-.21.09-.49.16-.72.29-.49.29-.99.56-1.49.82-.44.23-.97.56-1.29.94-.37.43-.42,1.06,0,1.48.38.38,1.11.43,1.48,0h0Z"/>
      </g>
    </g>
  </g>
</svg>