<svg width="16" height="15" viewBox="0 0 16 15" fill="none" xmlns="http://www.w3.org/2000/svg">
<path id="Vector" d="M2.02514 2.11523C1.70013 2.4688 1.44232 2.88855 1.26642 3.35051C1.09053 3.81247 1 4.3076 1 4.80763C1 5.30765 1.09053 5.80278 1.26642 6.26474C1.44232 6.7267 1.70013 7.14645 2.02514 7.50002L8.00001 14L13.9749 7.50002C14.6313 6.78595 15 5.81747 15 4.80763C15 3.79778 14.6313 2.8293 13.9749 2.11523C13.3185 1.40117 12.4283 1.00001 11.5 1.00001C10.5717 1.00001 9.68149 1.40117 9.02511 2.11523L8.00001 3.23044L6.9749 2.11523C6.64989 1.76166 6.26406 1.48119 5.83941 1.28984C5.41477 1.09849 4.95965 1 4.50002 1C4.04039 1 3.58526 1.09849 3.16062 1.28984C2.73598 1.48119 2.35014 1.76166 2.02514 2.11523Z" stroke="#0F1117" stroke-width="0.5" stroke-linecap="round" stroke-linejoin="round"/>
</svg>
