<svg width="193" height="72" viewBox="0 0 193 72" fill="none" xmlns="http://www.w3.org/2000/svg">
<path d="M22.7388 51H6.31787V50.4434C9.68555 50.165 10.0474 49.8032 10.0474 46.9644V12.8701H9.54639C7.125 12.8423 5.51074 16.5718 1.83691 32.8535H1.22461L1.30811 12.0352H27.7207L27.832 32.8535H27.2197C23.5459 16.5718 21.9316 12.8423 19.4824 12.8701H18.9814V46.9644C18.9814 49.8032 19.3433 50.165 22.7388 50.4434V51ZM50.543 51H34.1221V50.4434C37.5176 50.165 37.8794 49.8032 37.8794 46.9644V35.8315L31.2554 15.375C30.6431 13.6216 30.3369 13.0371 29.4741 12.5918V12.0352H43.418V12.5918C40.9409 12.8979 40.2451 13.7886 41.3584 17.2954L44.6147 27.7603C45.1714 29.5137 45.7837 31.4341 46.2847 33.438H46.8413C47.3701 31.4619 48.0103 29.5415 48.4277 28.2891L49.9863 23.2793C51.5449 18.2417 51.2944 13.7051 47.0361 12.5918V12.0352H55.1631V12.5918C53.8271 14.6235 52.853 16.7666 51.4614 21.1641L46.8135 35.8315V46.9644C46.8135 49.8032 47.1753 50.165 50.543 50.4434V51ZM71.1108 51H56.4712V50.4434C58.1133 50.1929 58.4473 49.6919 58.4473 47.6602V15.375C58.4473 13.3433 58.1133 12.8423 56.4712 12.5918V12.0352H71.8901C79.7944 12.0352 83.6631 15.709 83.6631 23.168V26.1182C83.6631 33.5215 79.7944 37.1396 71.8901 37.1396H67.3535V46.9922C67.3535 49.8032 67.7432 50.165 71.1108 50.4434V51ZM67.3535 12.8423V36.3325H70.248C73.6436 36.3325 74.9795 34.2729 74.9795 28.9292V20.3569C74.9795 14.9297 73.6436 12.8423 70.248 12.8423H67.3535ZM100.613 51H85.9731V50.4434C87.6152 50.1929 87.9492 49.6919 87.9492 47.6602V15.375C87.9492 13.3433 87.6152 12.8423 85.9731 12.5918V12.0352H101.392C109.296 12.0352 113.165 15.709 113.165 23.168V26.1182C113.165 33.5215 109.296 37.1396 101.392 37.1396H96.8555V46.9922C96.8555 49.8032 97.2451 50.165 100.613 50.4434V51ZM96.8555 12.8423V36.3325H99.75C103.146 36.3325 104.481 34.2729 104.481 28.9292V20.3569C104.481 14.9297 103.146 12.8423 99.75 12.8423H96.8555Z" fill="black"/>
<path d="M172.036 51H163.046L155.615 15.375C155.253 13.6772 154.892 13.0649 154.112 12.5918V12.0352H168.668V12.5918C166.442 12.8979 165.718 13.8999 167.305 21.8599L170.422 37.1675C170.923 39.728 171.424 42.5112 171.897 45.4614H172.481C172.982 42.5112 173.511 39.728 173.957 37.5015L175.766 28.623C177.547 19.7446 176.183 13.3433 172.12 12.5918V12.0352H180.915V12.5918C179.773 14.5679 178.521 18.6592 176.74 26.2573L172.036 51Z" fill="black"/>
<circle cx="134.25" cy="32.2495" r="19.5" fill="#5772FF"/>
</svg>
