<svg width="91" height="32" viewBox="0 0 91 32" fill="none" xmlns="http://www.w3.org/2000/svg">
<path d="M10.8765 23H3.50342V22.7559C5.46875 22.6338 5.67627 22.4873 5.67627 21.1812V6.27637H4.94385C3.03955 6.26416 2.27051 7.81445 1.0498 13.9058H0.732422L0.915527 5.91016H13.4766L13.6597 13.9058H13.3423C12.1094 7.81445 11.3525 6.26416 9.44824 6.27637H8.71582V21.1812C8.71582 22.4873 8.92334 22.6338 10.8765 22.7559V23ZM25.1221 23H17.749V22.7559C19.7021 22.6338 19.9097 22.4873 19.9097 21.1812V15.749L15.9912 7.49707C15.5396 6.58154 15.3687 6.3374 14.7217 6.1543V5.91016H20.7764V6.1543C19.165 6.28857 18.8721 6.61816 19.5312 8.02197L21.4966 12.2456C21.8262 12.9536 22.3267 13.9912 22.7173 14.9067H22.9614C23.3521 14.0156 23.8892 12.9658 24.1577 12.4409L25.2075 10.2925C26.2573 8.14404 26.0132 6.5083 24.0601 6.1543V5.91016H28.0518V6.1543C27.3804 6.81348 26.9287 7.61914 26.0132 9.48682L22.9492 15.749V21.1812C22.9492 22.4873 23.1567 22.6338 25.1221 22.7559V23ZM35.498 23H28.9062V22.7559C30.1147 22.6338 30.2979 22.4507 30.2979 21.4131V7.49707C30.2979 6.45947 30.1147 6.27637 28.9062 6.1543V5.91016H36.0962C39.7705 5.91016 41.6748 7.69238 41.6748 11.147V11.1958C41.6748 14.6138 39.7705 16.396 36.0962 16.396H33.3252V21.1812C33.3252 22.4873 33.5449 22.6338 35.498 22.7559V23ZM33.3252 6.27637V16.0298H35.4614C37.6953 16.0298 38.6963 14.7358 38.6963 11.7573V10.5732C38.6963 7.58252 37.6953 6.27637 35.4614 6.27637H33.3252ZM49.707 23H43.1152V22.7559C44.3237 22.6338 44.5068 22.4507 44.5068 21.4131V7.49707C44.5068 6.45947 44.3237 6.27637 43.1152 6.1543V5.91016H50.3052C53.9795 5.91016 55.8838 7.69238 55.8838 11.147V11.1958C55.8838 14.6138 53.9795 16.396 50.3052 16.396H47.5342V21.1812C47.5342 22.4873 47.7539 22.6338 49.707 22.7559V23ZM47.5342 6.27637V16.0298H49.6704C51.9043 16.0298 52.9053 14.7358 52.9053 11.7573V10.5732C52.9053 7.58252 51.9043 6.27637 49.6704 6.27637H47.5342Z" fill="black"/>
<path d="M81.8052 23H79.1929L74.7861 7.49707C74.5054 6.53271 74.3101 6.3252 73.6509 6.1543V5.91016H79.5713V6.1543C77.9355 6.28857 77.667 6.60596 78.668 10.1582L80.731 17.4702C81.0728 18.6909 81.3901 19.9849 81.6953 21.3521H81.9517C82.2812 19.9849 82.6353 18.6909 82.9648 17.5435L84.2954 12.917C85.626 8.29053 85.0889 6.37402 83.2822 6.1543V5.91016H87.335V6.1543C86.6392 6.71582 86.0288 8.20508 85.2354 11.1348L81.8052 23Z" fill="black"/>
<circle cx="65.6667" cy="14.3332" r="8.66667" fill="#5772FF"/>
</svg>
