<svg width="11" height="10" viewBox="0 0 11 10" fill="none" xmlns="http://www.w3.org/2000/svg">
<path d="M5.02588 0.415683C5.17825 -0.0392717 5.82175 -0.039272 5.97412 0.415683L6.87684 3.11116C6.94458 3.31341 7.13317 3.45043 7.34646 3.45235L10.189 3.47795C10.6687 3.48227 10.8676 4.09427 10.482 4.37977L8.19739 6.07126C8.02597 6.19818 7.95393 6.41988 8.01802 6.62333L8.87206 9.33462C9.01621 9.79224 8.4956 10.1705 8.10492 9.89198L5.79024 8.2419C5.61655 8.11809 5.38345 8.11809 5.20976 8.2419L2.89508 9.89198C2.5044 10.1705 1.9838 9.79224 2.12794 9.33462L2.98198 6.62333C3.04607 6.41988 2.97403 6.19818 2.80261 6.07126L0.518017 4.37977C0.132413 4.09427 0.331266 3.48227 0.811037 3.47795L3.65354 3.45235C3.86683 3.45043 4.05542 3.31341 4.12316 3.11116L5.02588 0.415683Z" fill="#D9D9D9"/>
</svg>
