<svg width="11" height="11" viewBox="0 0 11 11" fill="none" xmlns="http://www.w3.org/2000/svg">
<path d="M5.02772 0.358694C5.18337 -0.0890857 5.81663 -0.0890861 5.97228 0.358694L6.914 3.06791C6.98267 3.26545 7.16701 3.39938 7.3761 3.40364L10.2437 3.46208C10.7177 3.47174 10.9134 4.07401 10.5356 4.36042L8.25 6.09324C8.08335 6.21959 8.01294 6.4363 8.0735 6.63647L8.90407 9.3818C9.04134 9.83555 8.52902 10.2078 8.1399 9.937L5.78559 8.29873C5.61393 8.17928 5.38607 8.17928 5.21441 8.29873L2.8601 9.937C2.47098 10.2078 1.95866 9.83555 2.09593 9.3818L2.9265 6.63647C2.98706 6.4363 2.91665 6.21959 2.75 6.09324L0.464384 4.36042C0.0866182 4.07401 0.282308 3.47174 0.756271 3.46208L3.6239 3.40364C3.83299 3.39938 4.01733 3.26545 4.08599 3.06791L5.02772 0.358694Z" fill="#242424"/>
</svg>
